<svg xmlns="http://www.w3.org/2000/svg" width="64" height="64" viewBox="0 0 64 64" fill="none" role="img" aria-label="IS logo">
  <defs>
    <linearGradient id="g" x1="10" y1="10" x2="54" y2="54" gradientUnits="userSpaceOnUse">
      <stop stop-color="#2563EB"/>
      <stop offset="1" stop-color="#14B8A6"/>
    </linearGradient>
    <filter id="s" x="-20%" y="-20%" width="140%" height="140%" color-interpolation-filters="sRGB">
      <feDropShadow dx="0" dy="10" stdDeviation="10" flood-color="#020617" flood-opacity=".18"/>
    </filter>
  </defs>
  <rect x="6" y="6" width="52" height="52" rx="18" fill="url(#g)" filter="url(#s)"/>
  <path d="M24 22h6v20h-6V22Z" fill="white" opacity=".96"/>
  <path d="M34 22h6c4.4 0 8 3.6 8 8 0 3.8-2.6 7-6.2 7.8L48 42h-7l-5.8-7.9H34V22Zm6 6h-2v4h2c1.1 0 2-.9 2-2s-.9-2-2-2Z" fill="white" opacity=".96"/>
  <path d="M18 46c9.6-2.2 18.4-2.2 28 0" stroke="white" stroke-opacity=".55" stroke-width="2" stroke-linecap="round"/>
</svg>
